<svg id="Layer_1" data-name="Layer 1" xmlns="http://www.w3.org/2000/svg" viewBox="0 0 1280 974"><defs><style>.cls-1{fill:#fff;}.cls-2{fill:#c1272d;}.cls-3{font-size:24px;}.cls-13,.cls-3,.cls-7{font-family:Saira-Bold, Saira;font-weight:700;}.cls-4{letter-spacing:-0.03em;}.cls-5{letter-spacing:-0.01em;}.cls-6{fill:#39b54a;}.cls-7{font-size:30px;letter-spacing:0.1em;}.cls-8{letter-spacing:0.09em;}.cls-13,.cls-17,.cls-21,.cls-9{font-size:20px;}.cls-17,.cls-9{font-family:Saira-Regular, Saira;}.cls-10{letter-spacing:0em;}.cls-11{letter-spacing:-0.01em;}.cls-12{letter-spacing:-0.01em;}.cls-14{letter-spacing:-0.03em;}.cls-15{letter-spacing:-0.01em;}.cls-16,.cls-26{fill:none;stroke-miterlimit:10;}.cls-16{stroke:#000;stroke-width:0.59px;}.cls-17{font-weight:400;}.cls-18{fill:#0071bc;}.cls-19{letter-spacing:-0.06em;}.cls-20{letter-spacing:-0.01em;}.cls-21{font-family:SairaExtraCondensed-Regular, Saira ExtraCondensed;}.cls-22{letter-spacing:-0.02em;}.cls-23{letter-spacing:0em;}.cls-24{fill:#f15a24;}.cls-25{letter-spacing:-0.01em;}.cls-26{stroke:#b3b3b3;stroke-width:0.98px;stroke-dasharray:3.94 5.91;}</style></defs><title>SA-SC-deploy-vect</title><rect class="cls-1" x="521" y="128" width="282" height="54"/><path class="cls-2" d="M801,130v50H523V130H801m4-4H519v58H805V126Z"/><text class="cls-3" transform="translate(537 163.83)">Algo<tspan class="cls-4" x="51.09" y="0">T</tspan><tspan x="64.44" y="0">o</tspan><tspan class="cls-5" x="78.12" y="0">k</tspan><tspan x="91.58" y="0">enV1.sol</tspan></text><rect class="cls-1" x="279" y="355" width="282" height="116"/><path class="cls-6" d="M559,357V469H281V357H559m4-4H277V473H563V353Z"/><text class="cls-7" transform="translate(462.97 42.29)">Cont<tspan class="cls-8" x="76.17" y="0">r</tspan><tspan x="91.11" y="0">act Deployment</tspan></text><text class="cls-9" transform="translate(126.06 176.86)">&lt;co<tspan class="cls-10" x="31.56" y="0">r</tspan><tspan x="38.8" y="0">e-</tspan><tspan class="cls-11" x="57.24" y="0">t</tspan><tspan x="64.32" y="0">eam-</tspan><tspan class="cls-12" x="111.82" y="0">e</tspan><tspan x="122.82" y="0">xt-addr&gt;</tspan></text><text class="cls-9" transform="translate(170.8 146.86)">msg.sender:</text><text class="cls-9" transform="translate(53.8 373.86)">msg.sender:</text><text class="cls-9" transform="translate(28.56 398.86)">&lt;pool-1-<tspan class="cls-12" x="72.82" y="0">e</tspan><tspan x="83.82" y="0">xt-addr&gt;</tspan></text><text class="cls-9" transform="translate(275.93 514.86)">cont<tspan class="cls-12" x="39.9" y="0">r</tspan><tspan x="47.04" y="0">act add</tspan><tspan class="cls-11" x="114.56" y="0">r</tspan><tspan x="121.8" y="0">ess: &lt;pool-1-addr&gt; </tspan></text><text class="cls-13" transform="translate(36 99.95)">1. ALGO <tspan class="cls-14" x="76.14" y="0">T</tspan><tspan x="87.26" y="0">o</tspan><tspan class="cls-12" x="98.66" y="0">k</tspan><tspan x="109.88" y="0">en - deployed once</tspan></text><text class="cls-13" transform="translate(36 315.95)">2. ALGO Pools - deployed <tspan class="cls-10" x="240.5" y="0">f</tspan><tspan x="248.82" y="0">or each pool al</tspan><tspan class="cls-11" x="384" y="0">o</tspan><tspan x="395.29" y="0">ttment</tspan></text><path d="M39.18,607c-.84-.08-1.57-.19-2.18-.31v-2.56c1.63.16,3,.24,4.1.24a9.07,9.07,0,0,0,1.5-.08,1,1,0,0,0,.68-.38,1.65,1.65,0,0,0,.22-1,2.31,2.31,0,0,0-.16-1,.87.87,0,0,0-.55-.45,4.08,4.08,0,0,0-1.13-.12h-2.3v-2.72h2.3a4,4,0,0,0,1-.1.77.77,0,0,0,.52-.41,2,2,0,0,0,.16-.91,1.82,1.82,0,0,0-.2-1,1,1,0,0,0-.68-.37,11.52,11.52,0,0,0-1.6-.08c-.56,0-1.2,0-1.93.08l-1.89.18v-2.58a17.87,17.87,0,0,1,2.12-.32c.83-.08,1.57-.12,2.24-.12a10.43,10.43,0,0,1,3.24.41,3.15,3.15,0,0,1,1.7,1.2,3.74,3.74,0,0,1,.5,2,3.53,3.53,0,0,1-.58,2.21,3,3,0,0,1-1.8,1V600a3.47,3.47,0,0,1,1.9,1,3.54,3.54,0,0,1,.6,2.3,4.23,4.23,0,0,1-.46,2.09,3,3,0,0,1-1.69,1.29,10,10,0,0,1-3.43.46A21.21,21.21,0,0,1,39.18,607Z"/><path d="M49.38,607v-3H52.8v3Z"/><path d="M69.26,607l-.82-2.6h-4.9l-.78,2.6H59.28l4.4-13.76H68.4L72.8,607ZM66,596.27h-.1l-1.58,5.26h3.28Z"/><path d="M74.42,607V593.19H77.9V604h5.46v3Z"/><path d="M90.72,601.55v-2.64h5.14v7.74a21.94,21.94,0,0,1-2.39.33c-.9.09-1.69.13-2.37.13a10.5,10.5,0,0,1-3.94-.55,3.1,3.1,0,0,1-1.76-2,15.36,15.36,0,0,1-.48-4.49,14.32,14.32,0,0,1,.49-4.31,3.42,3.42,0,0,1,1.79-2.1,9.26,9.26,0,0,1,3.88-.63,23.92,23.92,0,0,1,2.94.18,16.57,16.57,0,0,1,1.78.28v2.64a31.44,31.44,0,0,0-3.44-.28,11.52,11.52,0,0,0-2.71.21,1.39,1.39,0,0,0-1,1,12.33,12.33,0,0,0-.24,3,15.18,15.18,0,0,0,.18,2.81,1.62,1.62,0,0,0,.75,1.17,3.94,3.94,0,0,0,1.87.32q.72,0,1.38-.06v-2.76Z"/><path d="M100.15,606.5a2.76,2.76,0,0,1-1.54-2,32.53,32.53,0,0,1,0-9,2.8,2.8,0,0,1,1.54-2,10.16,10.16,0,0,1,4.13-.61,10.16,10.16,0,0,1,4.13.61,2.76,2.76,0,0,1,1.53,2,33.6,33.6,0,0,1,0,9,2.72,2.72,0,0,1-1.53,2,10,10,0,0,1-4.13.61A10,10,0,0,1,100.15,606.5Zm5.87-2.42a1.19,1.19,0,0,0,.56-1,38.57,38.57,0,0,0,0-6.08,1.2,1.2,0,0,0-.56-1,4.67,4.67,0,0,0-1.74-.21,4.88,4.88,0,0,0-1.76.21,1.18,1.18,0,0,0-.58,1,38.06,38.06,0,0,0,0,6,1.18,1.18,0,0,0,.58,1,4.88,4.88,0,0,0,1.76.21A4.67,4.67,0,0,0,106,604.08Z"/><path d="M129.56,607v-8.76h-.14L126.48,607h-2.36l-2.94-8.76H121V607H117.8V593.19h4.78l2.72,7.94h.14l2.7-7.94h4.76V607Z"/><path d="M135.52,594.73v-2.64h3.3v2.64Zm0,12.22v-10.2h3.26V607Z"/><path d="M147.36,601.57a9.15,9.15,0,0,0-.09-1.56.74.74,0,0,0-.35-.56,2.57,2.57,0,0,0-1-.12,2.06,2.06,0,0,0-1,.19.94.94,0,0,0-.41.65,7.4,7.4,0,0,0-.1,1.46V607h-3.22v-10.2h3.06l.08,1.22h.18a3.08,3.08,0,0,1,2.94-1.38,3.54,3.54,0,0,1,2,.45,2.15,2.15,0,0,1,.89,1.28,9,9,0,0,1,.22,2.25V607h-3.22Z"/><path d="M162,602.65h-6.1A4.09,4.09,0,0,0,156,604a.84.84,0,0,0,.66.5,9.3,9.3,0,0,0,1.83.12c.94,0,2-.05,3.06-.16v2.3a10.77,10.77,0,0,1-1.71.26c-.71.07-1.42.1-2.11.1a8.42,8.42,0,0,1-3.41-.51,2.39,2.39,0,0,1-1.37-1.55,16.9,16.9,0,0,1,0-6.34,2.55,2.55,0,0,1,1.31-1.59,7.19,7.19,0,0,1,3.17-.53,7,7,0,0,1,3.11.51,2.23,2.23,0,0,1,1.18,1.52,16.58,16.58,0,0,1,.23,3.25Zm-5.58-3.58a.76.76,0,0,0-.42.55,6.33,6.33,0,0,0-.1,1.37H159a5.58,5.58,0,0,0-.12-1.38.79.79,0,0,0-.42-.55,3.85,3.85,0,0,0-2,0Z"/><path d="M164.12,596.75h3.06l.08,1.74h.18a2.59,2.59,0,0,1,1.14-1.48,4.21,4.21,0,0,1,2-.42v3a5.14,5.14,0,0,0-2,.31,1.9,1.9,0,0,0-1,1.07,6.13,6.13,0,0,0-.3,2.16V607h-3.22Z"/><path d="M174.13,607c-.77,0-1.44-.12-2-.2v-2.32c1.14.11,2.2.16,3.16.16a10.54,10.54,0,0,0,1.36-.06.81.81,0,0,0,.51-.21.92.92,0,0,0,.11-.51,1.08,1.08,0,0,0-.07-.43.47.47,0,0,0-.27-.19,4.77,4.77,0,0,0-.7-.12l-2.38-.3a2,2,0,0,1-1.61-.91,4.87,4.87,0,0,1-.41-2.25,3.24,3.24,0,0,1,.52-2,2.42,2.42,0,0,1,1.41-.88,10.33,10.33,0,0,1,2.31-.21c.65,0,1.32,0,2,.08a13.72,13.72,0,0,1,1.64.22v2.3c-1.1-.1-2.08-.16-2.94-.16-.59,0-1,0-1.26,0a.88.88,0,0,0-.53.19.68.68,0,0,0-.15.49,1.07,1.07,0,0,0,.05.42.34.34,0,0,0,.24.18,4.15,4.15,0,0,0,.63.12l2.36.28a3.56,3.56,0,0,1,1.22.35,1.71,1.71,0,0,1,.69.88,5.34,5.34,0,0,1,.25,1.83,3.87,3.87,0,0,1-.49,2.14,2.23,2.23,0,0,1-1.33.94,8.83,8.83,0,0,1-2.2.22C175.6,607.11,174.89,607.09,174.13,607Z"/><path d="M187.06,602.59v-2.66h5.44v2.66Z"/><path d="M200.81,606.65a2.64,2.64,0,0,1-1.05-1.59,11.38,11.38,0,0,1-.34-3.17,12.09,12.09,0,0,1,.33-3.2,2.74,2.74,0,0,1,1-1.61,3.51,3.51,0,0,1,2-.47,5.23,5.23,0,0,1,1.71.25,2.24,2.24,0,0,1,1.13,1h.16v-5.74H209V607H205.9l-.08-1.2h-.16a2.23,2.23,0,0,1-1.16,1.07,4.67,4.67,0,0,1-1.74.29A3.52,3.52,0,0,1,200.81,606.65Zm4.31-2.41a.91.91,0,0,0,.44-.53,2.62,2.62,0,0,0,.15-.74c0-.28,0-.65,0-1.12a7,7,0,0,0-.16-1.8.94.94,0,0,0-.44-.57,2.23,2.23,0,0,0-.94-.15,2.6,2.6,0,0,0-1.06.15.84.84,0,0,0-.4.64,15.19,15.19,0,0,0,0,3.48.82.82,0,0,0,.4.64,2.6,2.6,0,0,0,1.06.15A2.16,2.16,0,0,0,205.12,604.24Z"/><path d="M220.36,602.65h-6.1a4.09,4.09,0,0,0,.15,1.34.84.84,0,0,0,.66.5,9.3,9.3,0,0,0,1.83.12c.94,0,2-.05,3.06-.16v2.3a10.77,10.77,0,0,1-1.71.26c-.72.07-1.42.1-2.11.1a8.42,8.42,0,0,1-3.41-.51,2.39,2.39,0,0,1-1.37-1.55,16.9,16.9,0,0,1,0-6.34,2.52,2.52,0,0,1,1.31-1.59,7.19,7.19,0,0,1,3.17-.53,7,7,0,0,1,3.11.51,2.26,2.26,0,0,1,1.18,1.52,16.58,16.58,0,0,1,.23,3.25Zm-5.58-3.58a.74.74,0,0,0-.42.55,6.33,6.33,0,0,0-.1,1.37h3.08a5.58,5.58,0,0,0-.12-1.38.79.79,0,0,0-.42-.55,3.85,3.85,0,0,0-2,0Z"/><path d="M222.5,596.75h3.06l.08,1.22h.18a2.25,2.25,0,0,1,1.16-1.08,4.52,4.52,0,0,1,1.72-.3,3.65,3.65,0,0,1,2,.46,2.79,2.79,0,0,1,1,1.59,11.82,11.82,0,0,1,.34,3.17,12,12,0,0,1-.33,3.2,2.76,2.76,0,0,1-1,1.61,3.48,3.48,0,0,1-1.95.47,5,5,0,0,1-1.71-.25,2.15,2.15,0,0,1-1.13-1h-.16v5.06H222.5Zm5.84,7.48a.78.78,0,0,0,.39-.63,17.06,17.06,0,0,0,0-3.5.83.83,0,0,0-.39-.64,2.68,2.68,0,0,0-1.08-.15,2.28,2.28,0,0,0-.9.14.88.88,0,0,0-.44.5,2.26,2.26,0,0,0-.16.72c0,.3,0,.69,0,1.18s0,.91,0,1.19a1.8,1.8,0,0,0,.15.67.83.83,0,0,0,.44.52,2.16,2.16,0,0,0,.92.14A2.72,2.72,0,0,0,228.34,604.23Z"/><path d="M234.14,607V592.09h3.26V607Z"/><path d="M241,606.66a2.14,2.14,0,0,1-1.27-1.48,20.73,20.73,0,0,1,0-6.67A2.15,2.15,0,0,1,241,597a12.18,12.18,0,0,1,6.56,0,2.17,2.17,0,0,1,1.27,1.47,20.73,20.73,0,0,1,0,6.67,2.17,2.17,0,0,1-1.27,1.48,12.18,12.18,0,0,1-6.56,0Zm4.43-2.22a.85.85,0,0,0,.38-.67,18.54,18.54,0,0,0,.07-1.92,19,19,0,0,0-.07-1.94.84.84,0,0,0-.38-.66,2.94,2.94,0,0,0-1.15-.16,2.91,2.91,0,0,0-1.15.16.79.79,0,0,0-.38.66,16.39,16.39,0,0,0-.07,1.94,16,16,0,0,0,.07,1.92.8.8,0,0,0,.38.67,2.54,2.54,0,0,0,1.15.17A2.57,2.57,0,0,0,245.47,604.44Z"/><path d="M253.61,611a13.16,13.16,0,0,1-1.63-.19v-2.28l.94,0,1.84,0a7.55,7.55,0,0,0,1.82-.15.88.88,0,0,0,.65-.55,5.71,5.71,0,0,0,.13-1.46v-.84h-.16a2.29,2.29,0,0,1-1.12,1,4.4,4.4,0,0,1-1.76.31,3.53,3.53,0,0,1-2-.44,2,2,0,0,1-.89-1.27,8.94,8.94,0,0,1-.22-2.25v-6.18h3.22V602a8.77,8.77,0,0,0,.09,1.55.69.69,0,0,0,.35.55,2.57,2.57,0,0,0,1,.12,1.94,1.94,0,0,0,1-.19,1,1,0,0,0,.41-.64,8,8,0,0,0,.1-1.45v-5.14h3.22v9.06a12.05,12.05,0,0,1-.3,3.11,2.54,2.54,0,0,1-1.37,1.6,7.73,7.73,0,0,1-3.37.55C254.91,611.07,254.27,611.05,253.61,611Z"/><path d="M272,602.65h-6.1A4.09,4.09,0,0,0,266,604a.84.84,0,0,0,.66.5,9.3,9.3,0,0,0,1.83.12c.94,0,2-.05,3.06-.16v2.3a10.77,10.77,0,0,1-1.71.26c-.72.07-1.42.1-2.11.1a8.42,8.42,0,0,1-3.41-.51,2.39,2.39,0,0,1-1.37-1.55,16.9,16.9,0,0,1,0-6.34,2.52,2.52,0,0,1,1.31-1.59,7.19,7.19,0,0,1,3.17-.53,7,7,0,0,1,3.11.51,2.26,2.26,0,0,1,1.18,1.52,16.58,16.58,0,0,1,.23,3.25Zm-5.58-3.58a.74.74,0,0,0-.42.55,6.33,6.33,0,0,0-.1,1.37H269a5.58,5.58,0,0,0-.12-1.38.79.79,0,0,0-.42-.55,3.85,3.85,0,0,0-2,0Z"/><path d="M275.17,606.65a2.64,2.64,0,0,1-1.05-1.59,11.38,11.38,0,0,1-.34-3.17,12.09,12.09,0,0,1,.33-3.2,2.74,2.74,0,0,1,1-1.61,3.51,3.51,0,0,1,2-.47,5.23,5.23,0,0,1,1.71.25,2.24,2.24,0,0,1,1.13,1h.16v-5.74h3.22V607h-3.06l-.08-1.2H280a2.23,2.23,0,0,1-1.16,1.07,4.67,4.67,0,0,1-1.74.29A3.52,3.52,0,0,1,275.17,606.65Zm4.31-2.41a.91.91,0,0,0,.44-.53,2.62,2.62,0,0,0,.15-.74c0-.28,0-.65,0-1.12a7,7,0,0,0-.16-1.8.94.94,0,0,0-.44-.57,2.23,2.23,0,0,0-.94-.15,2.6,2.6,0,0,0-1.06.15.84.84,0,0,0-.4.64,15.19,15.19,0,0,0,0,3.48.82.82,0,0,0,.4.64,2.6,2.6,0,0,0,1.06.15A2.16,2.16,0,0,0,279.48,604.24Z"/><path d="M291.84,599.25H290v-2.5h1.86v-.64a6.21,6.21,0,0,1,.44-2.79,2,2,0,0,1,1.51-1,23.64,23.64,0,0,1,3.71-.2v2.28a11.86,11.86,0,0,0-1.65.08.87.87,0,0,0-.62.32,1.75,1.75,0,0,0-.15.86v1.1h2.42v2.5h-2.42V607h-3.24Z"/><path d="M300.32,606.66a2.14,2.14,0,0,1-1.27-1.48,20.73,20.73,0,0,1,0-6.67,2.15,2.15,0,0,1,1.27-1.47,12.18,12.18,0,0,1,6.56,0,2.17,2.17,0,0,1,1.27,1.47,20.73,20.73,0,0,1,0,6.67,2.17,2.17,0,0,1-1.27,1.48,12.18,12.18,0,0,1-6.56,0Zm4.43-2.22a.85.85,0,0,0,.38-.67,18.54,18.54,0,0,0,.07-1.92,19,19,0,0,0-.07-1.94.84.84,0,0,0-.38-.66,2.94,2.94,0,0,0-1.15-.16,2.91,2.91,0,0,0-1.15.16.79.79,0,0,0-.38.66,16.39,16.39,0,0,0-.07,1.94,16,16,0,0,0,.07,1.92.8.8,0,0,0,.38.67,2.54,2.54,0,0,0,1.15.17A2.57,2.57,0,0,0,304.75,604.44Z"/><path d="M310.52,596.75h3.06l.08,1.74h.18A2.59,2.59,0,0,1,315,597a4.19,4.19,0,0,1,2-.42v3a5.14,5.14,0,0,0-2,.31,1.9,1.9,0,0,0-1,1.07,6.13,6.13,0,0,0-.3,2.16V607h-3.22Z"/><path d="M332.68,602.65h-6.1a4.09,4.09,0,0,0,.15,1.34.84.84,0,0,0,.66.5,9.3,9.3,0,0,0,1.83.12c.94,0,2-.05,3.06-.16v2.3a10.77,10.77,0,0,1-1.71.26c-.72.07-1.42.1-2.11.1a8.42,8.42,0,0,1-3.41-.51,2.39,2.39,0,0,1-1.37-1.55,16.9,16.9,0,0,1,0-6.34,2.52,2.52,0,0,1,1.31-1.59,7.19,7.19,0,0,1,3.17-.53,7,7,0,0,1,3.11.51,2.26,2.26,0,0,1,1.18,1.52,16.58,16.58,0,0,1,.23,3.25Zm-5.58-3.58a.74.74,0,0,0-.42.55,6.33,6.33,0,0,0-.1,1.37h3.08a5.58,5.58,0,0,0-.12-1.38.79.79,0,0,0-.42-.55,3.85,3.85,0,0,0-2,0Z"/><path d="M335.08,606.39a3.24,3.24,0,0,1-.72-2.36,4.85,4.85,0,0,1,.28-1.86,1.76,1.76,0,0,1,1-1,5.16,5.16,0,0,1,2-.3c.65,0,1.59,0,2.82.08v-.36a2.48,2.48,0,0,0-.17-1.07.89.89,0,0,0-.64-.39,12.21,12.21,0,0,0-1.67-.08,29.43,29.43,0,0,0-3,.16v-2.32a23,23,0,0,1,4-.34,8.14,8.14,0,0,1,3.09.44,2.25,2.25,0,0,1,1.29,1.3,7.93,7.93,0,0,1,.3,2.48V607h-3.08l-.08-1.18h-.16a2.48,2.48,0,0,1-1.26,1.08,5.18,5.18,0,0,1-1.76.26A3,3,0,0,1,335.08,606.39Zm4.62-1.74a1,1,0,0,0,.5-.42,2.66,2.66,0,0,0,.22-1.24v-.4H338.6a2.84,2.84,0,0,0-.78.08.53.53,0,0,0-.33.31,2.3,2.3,0,0,0-.09.75,1.57,1.57,0,0,0,.1.66.52.52,0,0,0,.39.3,3.5,3.5,0,0,0,.93.08A2.63,2.63,0,0,0,339.7,604.65Z"/><path d="M350.2,607.11a5.7,5.7,0,0,1-3-.59,2.56,2.56,0,0,1-1.21-1.65,13,13,0,0,1-.26-3,12.81,12.81,0,0,1,.27-3,2.72,2.72,0,0,1,1.22-1.68,5.59,5.59,0,0,1,2.93-.61,12.46,12.46,0,0,1,3,.34v2.32a15.61,15.61,0,0,0-2.17-.16,3.14,3.14,0,0,0-1.35.21,1,1,0,0,0-.54.75,8.42,8.42,0,0,0-.13,1.8,8.53,8.53,0,0,0,.13,1.81,1,1,0,0,0,.54.75,3.25,3.25,0,0,0,1.37.2,16,16,0,0,0,2.23-.16v2.32A13.74,13.74,0,0,1,350.2,607.11Z"/><path d="M361.44,601.57a9.15,9.15,0,0,0-.09-1.56.74.74,0,0,0-.35-.56,2.64,2.64,0,0,0-1-.12,2,2,0,0,0-1,.19.94.94,0,0,0-.41.65,7.4,7.4,0,0,0-.1,1.46V607h-3.22V592.09h3.22v5.84h.16a2.39,2.39,0,0,1,1.15-1,4.49,4.49,0,0,1,1.73-.31,3.57,3.57,0,0,1,2,.45,2.2,2.2,0,0,1,.89,1.28,9.56,9.56,0,0,1,.22,2.25V607h-3.22Z"/><path d="M383.79,601.57a9.38,9.38,0,0,0-.08-1.55.72.72,0,0,0-.31-.57,2.14,2.14,0,0,0-.86-.12,1.77,1.77,0,0,0-.92.18,1,1,0,0,0-.35.64,8.61,8.61,0,0,0-.09,1.48V607H378v-5.38a10.68,10.68,0,0,0-.08-1.55.75.75,0,0,0-.32-.57,2.16,2.16,0,0,0-.87-.12,1.66,1.66,0,0,0-.89.19,1,1,0,0,0-.37.64,8.4,8.4,0,0,0-.09,1.47V607h-3.22v-10.2h3.06l.08,1.22h.16a3,3,0,0,1,2.84-1.38,4,4,0,0,1,1.8.33A2,2,0,0,1,381,598h.18a3,3,0,0,1,2.88-1.38,3.28,3.28,0,0,1,1.88.45,2.3,2.3,0,0,1,.87,1.29,9,9,0,0,1,.23,2.24V607h-3.23Z"/><path d="M389.44,594.73v-2.64h3.3v2.64Zm0,12.22v-10.2h3.25V607Z"/><path d="M401.28,601.57a9.15,9.15,0,0,0-.09-1.56.74.74,0,0,0-.36-.56,2.54,2.54,0,0,0-.95-.12,2.07,2.07,0,0,0-1,.19,1,1,0,0,0-.41.65,8.5,8.5,0,0,0-.09,1.46V607h-3.22v-10.2h3l.08,1.22h.18a3.09,3.09,0,0,1,2.95-1.38,3.51,3.51,0,0,1,2,.45,2.17,2.17,0,0,1,.9,1.28,9.56,9.56,0,0,1,.22,2.25V607h-3.22Z"/><path d="M415.89,602.65h-6.1A3.77,3.77,0,0,0,410,604a.81.81,0,0,0,.66.5,9.23,9.23,0,0,0,1.83.12,30.46,30.46,0,0,0,3.05-.16v2.3a10.43,10.43,0,0,1-1.7.26c-.72.07-1.42.1-2.12.1a8.48,8.48,0,0,1-3.41-.51,2.41,2.41,0,0,1-1.37-1.55,16.9,16.9,0,0,1,0-6.34,2.54,2.54,0,0,1,1.32-1.59,7.19,7.19,0,0,1,3.17-.53,7,7,0,0,1,3.1.51,2.25,2.25,0,0,1,1.19,1.52,16.76,16.76,0,0,1,.22,3.25Zm-5.58-3.58a.78.78,0,0,0-.42.55,7.05,7.05,0,0,0-.1,1.37h3.09a5.47,5.47,0,0,0-.13-1.38.77.77,0,0,0-.42-.55,2.77,2.77,0,0,0-1-.13A3,3,0,0,0,410.31,599.07Z"/><path d="M418,596.75h3l.08,1.74h.18a2.68,2.68,0,0,1,1.14-1.48,4.26,4.26,0,0,1,2.05-.42v3a5.19,5.19,0,0,0-2,.31,1.9,1.9,0,0,0-1,1.07,6.13,6.13,0,0,0-.3,2.16V607H418Z"/><path d="M37.22,620.75h3.06l.08,1.22h.18a2.29,2.29,0,0,1,1.16-1.08,4.56,4.56,0,0,1,1.72-.3,3.6,3.6,0,0,1,1.95.46,2.79,2.79,0,0,1,1.05,1.59,11.42,11.42,0,0,1,.34,3.17,12,12,0,0,1-.33,3.2,2.76,2.76,0,0,1-1,1.61,3.43,3.43,0,0,1-2,.47,5,5,0,0,1-1.71-.25,2.15,2.15,0,0,1-1.13-1h-.16v5.06H37.22Zm5.84,7.48a.78.78,0,0,0,.39-.63,17.06,17.06,0,0,0,0-3.5.83.83,0,0,0-.39-.64,2.68,2.68,0,0,0-1.08-.15,2.28,2.28,0,0,0-.9.14.88.88,0,0,0-.44.5,2.57,2.57,0,0,0-.16.72c0,.3,0,.69,0,1.18s0,.91,0,1.19a1.8,1.8,0,0,0,.15.67.83.83,0,0,0,.44.52,2.19,2.19,0,0,0,.92.14A2.72,2.72,0,0,0,43.06,628.23Z"/><path d="M49.12,630.39A3.24,3.24,0,0,1,48.4,628a4.85,4.85,0,0,1,.28-1.86,1.79,1.79,0,0,1,1-1,5.16,5.16,0,0,1,2-.3c.65,0,1.59,0,2.82.08v-.36a2.48,2.48,0,0,0-.17-1.07.87.87,0,0,0-.64-.39,12.11,12.11,0,0,0-1.67-.08,29.59,29.59,0,0,0-3,.16v-2.32a23.11,23.11,0,0,1,4-.34,8.14,8.14,0,0,1,3.09.44,2.25,2.25,0,0,1,1.29,1.3,7.93,7.93,0,0,1,.3,2.48V631H54.6l-.08-1.18h-.16a2.48,2.48,0,0,1-1.26,1.08,5.14,5.14,0,0,1-1.76.26A3,3,0,0,1,49.12,630.39Zm4.62-1.74a1,1,0,0,0,.5-.42,2.53,2.53,0,0,0,.22-1.24v-.4H52.64a2.84,2.84,0,0,0-.78.08.53.53,0,0,0-.33.31,2.3,2.3,0,0,0-.09.75,1.57,1.57,0,0,0,.1.66.56.56,0,0,0,.39.3,3.5,3.5,0,0,0,.93.08A2.59,2.59,0,0,0,53.74,628.65Z"/><path d="M60.14,620.75H63.2l.08,1.74h.18A2.59,2.59,0,0,1,64.6,621a4.24,4.24,0,0,1,2-.42v3a5.14,5.14,0,0,0-2,.31,1.9,1.9,0,0,0-1,1.07,6.13,6.13,0,0,0-.3,2.16V631H60.14Z"/><path d="M69.32,631v-7.7H67.48v-2.5h1.84v-3h3.26v3h2.2v2.5h-2.2V631Z"/><path d="M76.4,618.73v-2.64h3.3v2.64Zm0,12.22v-10.2h3.26V631Z"/><path d="M86.22,631.11a5.7,5.7,0,0,1-3-.59A2.6,2.6,0,0,1,82,628.87a13.56,13.56,0,0,1-.26-3,12.81,12.81,0,0,1,.27-3,2.72,2.72,0,0,1,1.22-1.68,5.59,5.59,0,0,1,2.93-.61,12.55,12.55,0,0,1,3,.34v2.32a15.87,15.87,0,0,0-2.18-.16,3.14,3.14,0,0,0-1.35.21,1.06,1.06,0,0,0-.54.75,8.42,8.42,0,0,0-.13,1.8,8.53,8.53,0,0,0,.13,1.81,1,1,0,0,0,.54.75,3.25,3.25,0,0,0,1.37.2,16.17,16.17,0,0,0,2.24-.16v2.32A13.76,13.76,0,0,1,86.22,631.11Z"/><path d="M91.32,618.73v-2.64h3.3v2.64Zm0,12.22v-10.2H94.6V631Z"/><path d="M97,620.75h3.06l.08,1.22h.18a2.25,2.25,0,0,1,1.16-1.08,4.52,4.52,0,0,1,1.72-.3,3.65,3.65,0,0,1,2,.46,2.79,2.79,0,0,1,1,1.59,11.82,11.82,0,0,1,.34,3.17,12,12,0,0,1-.33,3.2,2.76,2.76,0,0,1-1,1.61,3.48,3.48,0,0,1-1.95.47,5,5,0,0,1-1.71-.25,2.15,2.15,0,0,1-1.13-1h-.16v5.06H97Zm5.84,7.48a.78.78,0,0,0,.39-.63,17.06,17.06,0,0,0,0-3.5.83.83,0,0,0-.39-.64,2.68,2.68,0,0,0-1.08-.15,2.28,2.28,0,0,0-.9.14.88.88,0,0,0-.44.5,2.26,2.26,0,0,0-.16.72c0,.3,0,.69,0,1.18s0,.91,0,1.19a1.8,1.8,0,0,0,.15.67.83.83,0,0,0,.44.52,2.16,2.16,0,0,0,.92.14A2.72,2.72,0,0,0,102.88,628.23Z"/><path d="M108.94,630.39a3.24,3.24,0,0,1-.72-2.36,4.85,4.85,0,0,1,.28-1.86,1.76,1.76,0,0,1,1-1,5.16,5.16,0,0,1,2-.3c.65,0,1.59,0,2.82.08v-.36a2.48,2.48,0,0,0-.17-1.07.89.89,0,0,0-.64-.39,12.21,12.21,0,0,0-1.67-.08,29.43,29.43,0,0,0-3,.16v-2.32a23,23,0,0,1,4-.34,8.14,8.14,0,0,1,3.09.44,2.25,2.25,0,0,1,1.29,1.3,7.93,7.93,0,0,1,.3,2.48V631h-3.08l-.08-1.18h-.16a2.48,2.48,0,0,1-1.26,1.08,5.18,5.18,0,0,1-1.76.26A3,3,0,0,1,108.94,630.39Zm4.62-1.74a1,1,0,0,0,.5-.42,2.66,2.66,0,0,0,.22-1.24v-.4h-1.82a2.84,2.84,0,0,0-.78.08.53.53,0,0,0-.33.31,2.3,2.3,0,0,0-.09.75,1.57,1.57,0,0,0,.1.66.52.52,0,0,0,.39.3,3.5,3.5,0,0,0,.93.08A2.63,2.63,0,0,0,113.56,628.65Z"/><path d="M120.88,631v-7.7H119v-2.5h1.84v-3h3.26v3h2.2v2.5h-2.2V631Z"/><path d="M128,618.73v-2.64h3.3v2.64ZM128,631v-10.2h3.26V631Z"/><path d="M139.8,625.57a9.15,9.15,0,0,0-.09-1.56.74.74,0,0,0-.35-.56,2.64,2.64,0,0,0-1-.12,2,2,0,0,0-1,.19.94.94,0,0,0-.41.65,7.4,7.4,0,0,0-.1,1.46V631h-3.22v-10.2h3.06l.08,1.22H137a3.08,3.08,0,0,1,2.94-1.38,3.57,3.57,0,0,1,2,.45,2.2,2.2,0,0,1,.89,1.28,9.56,9.56,0,0,1,.22,2.25V631H139.8Z"/><path d="M147.58,635c-.68,0-1.23-.11-1.64-.18v-2.28c1.09,0,2,0,2.78,0a8.22,8.22,0,0,0,1.89-.14.9.9,0,0,0,.68-.56,5,5,0,0,0,.15-1.48v-.74h-.14a2.16,2.16,0,0,1-1.12,1,4.79,4.79,0,0,1-1.7.26,3.63,3.63,0,0,1-2-.46,2.62,2.62,0,0,1-1.05-1.56,11.38,11.38,0,0,1-.33-3.12,11.23,11.23,0,0,1,.34-3.14,2.66,2.66,0,0,1,1.06-1.57,3.67,3.67,0,0,1,2-.45,4.57,4.57,0,0,1,1.71.3,2.27,2.27,0,0,1,1.17,1.08h.16l.08-1.22h3.06v9a12.06,12.06,0,0,1-.31,3.12,2.58,2.58,0,0,1-1.4,1.61,7.94,7.94,0,0,1-3.41.55C148.91,635.07,148.26,635.05,147.58,635Zm3.2-6.93a.82.82,0,0,0,.44-.47,2,2,0,0,0,.18-.69c0-.27,0-.65,0-1.15s0-.85,0-1.13a2,2,0,0,0-.18-.67.91.91,0,0,0-.44-.5,2.24,2.24,0,0,0-.88-.14,2.84,2.84,0,0,0-1.06.14.8.8,0,0,0-.4.62,14.16,14.16,0,0,0,0,3.36.78.78,0,0,0,.4.62,2.64,2.64,0,0,0,1.06.14A2.27,2.27,0,0,0,150.78,628.06Z"/><path d="M162.12,618.73v-2.64h3.3v2.64Zm0,12.22v-10.2h3.26V631Z"/><path d="M174,625.57a9.15,9.15,0,0,0-.09-1.56.74.74,0,0,0-.35-.56,2.64,2.64,0,0,0-1-.12,2,2,0,0,0-1,.19.94.94,0,0,0-.41.65,7.4,7.4,0,0,0-.1,1.46V631h-3.22v-10.2h3.06L171,622h.18a3.08,3.08,0,0,1,2.94-1.38,3.57,3.57,0,0,1,2,.45,2.2,2.2,0,0,1,.89,1.28,9.56,9.56,0,0,1,.22,2.25V631H174Z"/><path d="M186.51,631c-.77,0-1.44-.12-2-.2v-2.32c1.14.11,2.2.16,3.16.16a10.54,10.54,0,0,0,1.36-.06.81.81,0,0,0,.51-.21.92.92,0,0,0,.11-.51,1.08,1.08,0,0,0-.07-.43.47.47,0,0,0-.27-.19,5,5,0,0,0-.7-.12l-2.38-.3a2,2,0,0,1-1.61-.91,4.75,4.75,0,0,1-.41-2.25,3.24,3.24,0,0,1,.52-2,2.42,2.42,0,0,1,1.41-.88,10.33,10.33,0,0,1,2.31-.21c.65,0,1.32,0,2,.08a14,14,0,0,1,1.64.22v2.3c-1.1-.1-2.08-.16-2.94-.16-.59,0-1,0-1.26,0a.88.88,0,0,0-.53.19.68.68,0,0,0-.15.49,1.07,1.07,0,0,0,.05.42.34.34,0,0,0,.24.18,3.9,3.9,0,0,0,.63.12l2.36.28a3.63,3.63,0,0,1,1.22.35,1.71,1.71,0,0,1,.69.88,5.34,5.34,0,0,1,.25,1.83,3.87,3.87,0,0,1-.49,2.14,2.23,2.23,0,0,1-1.33.94,8.83,8.83,0,0,1-2.2.22C188,631.11,187.27,631.09,186.51,631Z"/><path d="M194.62,620.75h3.06l.08,1.22h.18a2.21,2.21,0,0,1,1.16-1.08,4.52,4.52,0,0,1,1.72-.3,3.65,3.65,0,0,1,2,.46,2.79,2.79,0,0,1,1,1.59,11.82,11.82,0,0,1,.34,3.17,12.47,12.47,0,0,1-.33,3.2,2.76,2.76,0,0,1-1,1.61,3.48,3.48,0,0,1-1.95.47,5.08,5.08,0,0,1-1.72-.25,2.17,2.17,0,0,1-1.12-1h-.16v5.06h-3.22Zm5.84,7.48a.78.78,0,0,0,.39-.63,17.06,17.06,0,0,0,0-3.5.83.83,0,0,0-.39-.64,2.68,2.68,0,0,0-1.08-.15,2.28,2.28,0,0,0-.9.14.88.88,0,0,0-.44.5,2.26,2.26,0,0,0-.16.72c0,.3,0,.69,0,1.18s0,.91,0,1.19a1.8,1.8,0,0,0,.15.67.83.83,0,0,0,.44.52,2.16,2.16,0,0,0,.92.14A2.72,2.72,0,0,0,200.46,628.23Z"/><path d="M215.21,626.65h-6.09a4.09,4.09,0,0,0,.15,1.34.83.83,0,0,0,.66.5,9.3,9.3,0,0,0,1.83.12,30.46,30.46,0,0,0,3.05-.16v2.3a10.43,10.43,0,0,1-1.7.26c-.72.07-1.42.1-2.11.1a8.5,8.5,0,0,1-3.42-.51,2.44,2.44,0,0,1-1.37-1.55,17.47,17.47,0,0,1,0-6.34,2.57,2.57,0,0,1,1.32-1.59,7.19,7.19,0,0,1,3.17-.53,7,7,0,0,1,3.1.51,2.25,2.25,0,0,1,1.19,1.52,16.76,16.76,0,0,1,.22,3.25Zm-5.58-3.58a.78.78,0,0,0-.42.55,7.26,7.26,0,0,0-.09,1.37h3.08a5.58,5.58,0,0,0-.12-1.38.79.79,0,0,0-.42-.55,2.83,2.83,0,0,0-1-.13A3,3,0,0,0,209.63,623.07Z"/><path d="M221.46,631.11a5.77,5.77,0,0,1-3-.59,2.58,2.58,0,0,1-1.2-1.65,12.88,12.88,0,0,1-.27-3,12.73,12.73,0,0,1,.28-3,2.71,2.71,0,0,1,1.21-1.68,5.64,5.64,0,0,1,2.93-.61,12.55,12.55,0,0,1,3,.34v2.32a15.76,15.76,0,0,0-2.18-.16,3.12,3.12,0,0,0-1.34.21,1.07,1.07,0,0,0-.55.75,9.35,9.35,0,0,0-.12,1.8,9.48,9.48,0,0,0,.12,1.81,1,1,0,0,0,.55.75,3.2,3.2,0,0,0,1.36.2,16.06,16.06,0,0,0,2.24-.16v2.32A13.74,13.74,0,0,1,221.46,631.11Z"/><path d="M226.55,618.73v-2.64h3.3v2.64Zm0,12.22v-10.2h3.26V631Z"/><path d="M233.31,623.25h-1.86v-2.5h1.86v-.64a6.36,6.36,0,0,1,.44-2.79,2.06,2.06,0,0,1,1.51-1,23.73,23.73,0,0,1,3.71-.2v2.28a12.07,12.07,0,0,0-1.65.08.89.89,0,0,0-.62.32,1.75,1.75,0,0,0-.15.86v1.1H239v2.5h-2.42V631h-3.24Zm7.36-4.52v-2.64H244v2.64Zm0,12.22v-10.2H244V631Z"/><path d="M250.49,631.11a5.75,5.75,0,0,1-3-.59,2.63,2.63,0,0,1-1.21-1.65,13.56,13.56,0,0,1-.26-3,12.81,12.81,0,0,1,.27-3,2.76,2.76,0,0,1,1.22-1.68,5.61,5.61,0,0,1,2.93-.61,12.55,12.55,0,0,1,3,.34v2.32a15.76,15.76,0,0,0-2.18-.16,3.21,3.21,0,0,0-1.35.21,1.08,1.08,0,0,0-.54.75,9.15,9.15,0,0,0-.13,1.8,9.27,9.27,0,0,0,.13,1.81,1,1,0,0,0,.54.75,3.28,3.28,0,0,0,1.37.2,16.06,16.06,0,0,0,2.24-.16v2.32A13.76,13.76,0,0,1,250.49,631.11Z"/><path d="M260.65,620.75h3.06l.08,1.22H264a2.29,2.29,0,0,1,1.16-1.08,4.59,4.59,0,0,1,1.72-.3,3.6,3.6,0,0,1,1.95.46,2.7,2.7,0,0,1,1.05,1.59,11.42,11.42,0,0,1,.34,3.17,12,12,0,0,1-.33,3.2,2.71,2.71,0,0,1-1,1.61,3.43,3.43,0,0,1-1.95.47,5,5,0,0,1-1.71-.25,2.19,2.19,0,0,1-1.13-1h-.16v5.06h-3.22Zm5.84,7.48a.78.78,0,0,0,.39-.63,17.06,17.06,0,0,0,0-3.5.83.83,0,0,0-.39-.64,2.68,2.68,0,0,0-1.08-.15,2.28,2.28,0,0,0-.9.14.91.91,0,0,0-.44.5,2.57,2.57,0,0,0-.16.72c0,.3,0,.69,0,1.18s0,.91,0,1.19a1.8,1.8,0,0,0,.15.67.86.86,0,0,0,.44.52,2.19,2.19,0,0,0,.92.14A2.72,2.72,0,0,0,266.49,628.23Z"/><path d="M273.49,630.66a2.17,2.17,0,0,1-1.27-1.48,20.73,20.73,0,0,1,0-6.67,2.17,2.17,0,0,1,1.27-1.47,12.18,12.18,0,0,1,6.56,0,2.15,2.15,0,0,1,1.27,1.47,20.73,20.73,0,0,1,0,6.67,2.14,2.14,0,0,1-1.27,1.48,12.18,12.18,0,0,1-6.56,0Zm4.43-2.22a.8.8,0,0,0,.38-.67,16,16,0,0,0,.07-1.92,16.39,16.39,0,0,0-.07-1.94.79.79,0,0,0-.38-.66,2.91,2.91,0,0,0-1.15-.16,2.94,2.94,0,0,0-1.15.16.84.84,0,0,0-.38.66,19,19,0,0,0-.07,1.94,18.54,18.54,0,0,0,.07,1.92.85.85,0,0,0,.38.67,2.57,2.57,0,0,0,1.15.17A2.54,2.54,0,0,0,277.92,628.44Z"/><path d="M284.89,630.66a2.17,2.17,0,0,1-1.27-1.48,20.73,20.73,0,0,1,0-6.67,2.17,2.17,0,0,1,1.27-1.47,12.18,12.18,0,0,1,6.56,0,2.15,2.15,0,0,1,1.27,1.47,20.73,20.73,0,0,1,0,6.67,2.14,2.14,0,0,1-1.27,1.48,12.18,12.18,0,0,1-6.56,0Zm4.43-2.22a.8.8,0,0,0,.38-.67,16,16,0,0,0,.07-1.92,16.39,16.39,0,0,0-.07-1.94.79.79,0,0,0-.38-.66,2.91,2.91,0,0,0-1.15-.16,2.94,2.94,0,0,0-1.15.16.84.84,0,0,0-.38.66,19,19,0,0,0-.07,1.94,18.54,18.54,0,0,0,.07,1.92.85.85,0,0,0,.38.67,2.57,2.57,0,0,0,1.15.17A2.54,2.54,0,0,0,289.32,628.44Z"/><path d="M295.09,631V616.09h3.26V631Z"/><path d="M307.12,631.44a6.76,6.76,0,0,1-.93-2.4,20.92,20.92,0,0,1-.3-4,21.3,21.3,0,0,1,.3-4,7.06,7.06,0,0,1,.95-2.46,18.1,18.1,0,0,1,2-2.41h2.1a19,19,0,0,0-1.44,2.15,8.52,8.52,0,0,0-.7,2.38,37.28,37.28,0,0,0,0,8.79,8.4,8.4,0,0,0,.7,2.39,18.13,18.13,0,0,0,1.44,2.15h-2.1A22.9,22.9,0,0,1,307.12,631.44Z"/><path d="M314.11,630.66a2.17,2.17,0,0,1-1.27-1.48,20.73,20.73,0,0,1,0-6.67,2.17,2.17,0,0,1,1.27-1.47,12.18,12.18,0,0,1,6.56,0,2.15,2.15,0,0,1,1.27,1.47,20.73,20.73,0,0,1,0,6.67,2.14,2.14,0,0,1-1.27,1.48,12.18,12.18,0,0,1-6.56,0Zm4.43-2.22a.8.8,0,0,0,.38-.67,16,16,0,0,0,.07-1.92,16.39,16.39,0,0,0-.07-1.94.79.79,0,0,0-.38-.66,2.91,2.91,0,0,0-1.15-.16,2.94,2.94,0,0,0-1.15.16.84.84,0,0,0-.38.66,19,19,0,0,0-.07,1.94,18.54,18.54,0,0,0,.07,1.92.85.85,0,0,0,.38.67,2.57,2.57,0,0,0,1.15.17A2.54,2.54,0,0,0,318.54,628.44Z"/><path d="M330.43,625.57a9.15,9.15,0,0,0-.09-1.56.71.71,0,0,0-.35-.56,2.57,2.57,0,0,0-1-.12,2.06,2.06,0,0,0-1,.19,1,1,0,0,0-.41.65,8.27,8.27,0,0,0-.1,1.46V631h-3.22v-10.2h3.06l.08,1.22h.18a3.08,3.08,0,0,1,2.94-1.38,3.52,3.52,0,0,1,2,.45,2.11,2.11,0,0,1,.89,1.28,9,9,0,0,1,.22,2.25V631h-3.22Z"/><path d="M338.21,635c-.68,0-1.22-.11-1.64-.18v-2.28c1.1,0,2,0,2.78,0a8.11,8.11,0,0,0,1.89-.14.88.88,0,0,0,.68-.56,5,5,0,0,0,.15-1.48v-.74h-.14a2.13,2.13,0,0,1-1.12,1,4.71,4.71,0,0,1-1.7.26,3.63,3.63,0,0,1-2-.46,2.62,2.62,0,0,1-1.05-1.56,11.38,11.38,0,0,1-.33-3.12,11.63,11.63,0,0,1,.34-3.14,2.7,2.7,0,0,1,1.06-1.57,3.69,3.69,0,0,1,2-.45,4.57,4.57,0,0,1,1.71.3A2.27,2.27,0,0,1,342,622h.16l.08-1.22h3.06v9a11.63,11.63,0,0,1-.31,3.12,2.53,2.53,0,0,1-1.4,1.61,7.88,7.88,0,0,1-3.41.55C339.54,635.07,338.89,635.05,338.21,635Zm3.2-6.93a.79.79,0,0,0,.44-.47,1.66,1.66,0,0,0,.18-.69,11.37,11.37,0,0,0,0-1.15c0-.48,0-.85,0-1.13a1.61,1.61,0,0,0-.18-.67.88.88,0,0,0-.44-.5,2.2,2.2,0,0,0-.88-.14,2.87,2.87,0,0,0-1.06.14.83.83,0,0,0-.4.62,14.16,14.16,0,0,0,0,3.36.81.81,0,0,0,.4.62,2.67,2.67,0,0,0,1.06.14A2.23,2.23,0,0,0,341.41,628.06Z"/><path d="M348.93,630.66a2.14,2.14,0,0,1-1.27-1.48,20.73,20.73,0,0,1,0-6.67,2.15,2.15,0,0,1,1.27-1.47,12.18,12.18,0,0,1,6.56,0,2.15,2.15,0,0,1,1.27,1.47,20.73,20.73,0,0,1,0,6.67,2.14,2.14,0,0,1-1.27,1.48,12.18,12.18,0,0,1-6.56,0Zm4.43-2.22a.8.8,0,0,0,.38-.67,16,16,0,0,0,.07-1.92,16.39,16.39,0,0,0-.07-1.94.79.79,0,0,0-.38-.66,4.21,4.21,0,0,0-2.3,0,.84.84,0,0,0-.38.66,16.39,16.39,0,0,0-.07,1.94,16,16,0,0,0,.07,1.92.85.85,0,0,0,.38.67,4,4,0,0,0,2.3,0Z"/><path d="M359.11,618.73v-2.64h3.3v2.64Zm0,12.22v-10.2h3.26V631Z"/><path d="M371,625.57a9.15,9.15,0,0,0-.09-1.56.74.74,0,0,0-.35-.56,2.57,2.57,0,0,0-1-.12,2.06,2.06,0,0,0-1,.19,1,1,0,0,0-.41.65,7.4,7.4,0,0,0-.1,1.46V631h-3.22v-10.2h3.06L368,622h.18a3.08,3.08,0,0,1,2.94-1.38,3.54,3.54,0,0,1,2,.45,2.15,2.15,0,0,1,.89,1.28,9,9,0,0,1,.22,2.25V631H371Z"/><path d="M378.73,635c-.68,0-1.23-.11-1.64-.18v-2.28c1.09,0,2,0,2.78,0a8.11,8.11,0,0,0,1.89-.14.9.9,0,0,0,.68-.56,5,5,0,0,0,.15-1.48v-.74h-.14a2.13,2.13,0,0,1-1.12,1,4.75,4.75,0,0,1-1.7.26,3.63,3.63,0,0,1-2-.46,2.62,2.62,0,0,1-1-1.56,11.38,11.38,0,0,1-.33-3.12,11.23,11.23,0,0,1,.34-3.14,2.7,2.7,0,0,1,1.06-1.57,3.67,3.67,0,0,1,2-.45,4.57,4.57,0,0,1,1.71.3,2.27,2.27,0,0,1,1.17,1.08h.16l.08-1.22h3.06v9a11.63,11.63,0,0,1-.31,3.12,2.55,2.55,0,0,1-1.4,1.61,7.91,7.91,0,0,1-3.41.55C380.06,635.07,379.41,635.05,378.73,635Zm3.2-6.93a.79.79,0,0,0,.44-.47,2,2,0,0,0,.18-.69,11.37,11.37,0,0,0,0-1.15c0-.48,0-.85,0-1.13a2,2,0,0,0-.18-.67.88.88,0,0,0-.44-.5,2.2,2.2,0,0,0-.88-.14,2.84,2.84,0,0,0-1.06.14.83.83,0,0,0-.4.62,14.16,14.16,0,0,0,0,3.36.81.81,0,0,0,.4.62,2.64,2.64,0,0,0,1.06.14A2.23,2.23,0,0,0,381.93,628.06Z"/><path d="M388.88,631.8a7.76,7.76,0,0,0,.71-2.39,37.28,37.28,0,0,0,0-8.79,7.87,7.87,0,0,0-.71-2.38,18,18,0,0,0-1.45-2.15h2.12a17.36,17.36,0,0,1,2,2.41,7.06,7.06,0,0,1,.95,2.46,21.3,21.3,0,0,1,.3,4,20.92,20.92,0,0,1-.3,4,6.76,6.76,0,0,1-.93,2.4,21.77,21.77,0,0,1-2.05,2.51h-2.12A17.23,17.23,0,0,0,388.88,631.8Z"/><text class="cls-13" transform="translate(793 606.95)">4. ALGO <tspan class="cls-15" x="81.22" y="0">F</tspan><tspan x="92.46" y="0">ees - deployed once</tspan></text><line class="cls-16" x1="323" y1="155.5" x2="494.5" y2="155.5"/><polygon points="492.77 161.41 503 155.5 492.77 149.59 492.77 161.41"/><line class="cls-16" x1="202" y1="382.5" x2="263.5" y2="382.5"/><polygon points="261.77 388.41 272 382.5 261.77 376.59 261.77 388.41"/><line class="cls-16" x1="414.5" y1="470" x2="414.5" y2="486.5"/><polygon points="408.59 484.77 414.5 495 420.41 484.77 408.59 484.77"/><text class="cls-9" transform="translate(527.93 226.86)">cont<tspan class="cls-12" x="39.9" y="0">r</tspan><tspan x="47.04" y="0">act add</tspan><tspan class="cls-11" x="114.56" y="0">r</tspan><tspan x="121.8" y="0">ess: &lt;pool-1-addr&gt; </tspan></text><line class="cls-16" x1="666.5" y1="182" x2="666.5" y2="198.5"/><polygon points="660.59 196.77 666.5 207 672.41 196.77 660.59 196.77"/><text class="cls-9" transform="translate(883.6 514.86)">cont<tspan class="cls-12" x="39.9" y="0">r</tspan><tspan x="47.04" y="0">act add</tspan><tspan class="cls-11" x="114.56" y="0">r</tspan><tspan x="121.8" y="0">ess: &lt;pool-2-addr&gt; </tspan></text><line class="cls-16" x1="1024.5" y1="470" x2="1024.5" y2="486.5"/><polygon points="1018.59 484.77 1024.5 495 1030.41 484.77 1018.59 484.77"/><text class="cls-3" transform="translate(296 388.83)">AlgoPool.sol<tspan class="cls-17"><tspan x="0" y="24">Pool type: 0 (miner-pool)</tspan><tspan class="cls-14" x="0" y="48">T</tspan><tspan x="11.04" y="48">o</tspan><tspan class="cls-12" x="22.58" y="48">k</tspan><tspan x="33.12" y="48">en addr: &lt;algo-addr&gt; </tspan></tspan></text><rect class="cls-1" x="315" y="667" width="282" height="201"/><path class="cls-18" d="M595,669V866H317V669H595m4-4H313V870H599V665Z"/><text class="cls-9" transform="translate(89.8 685.86)">msg.sender:</text><text class="cls-9" transform="translate(62.86 710.86)">&lt;pool-x-<tspan class="cls-12" x="76.22" y="0">e</tspan><tspan x="87.22" y="0">xt-addr&gt;</tspan></text><text class="cls-9" transform="translate(305.29 914.86)">cont<tspan class="cls-12" x="39.9" y="0">r</tspan><tspan x="47.04" y="0">act add</tspan><tspan class="cls-11" x="114.56" y="0">r</tspan><tspan x="121.8" y="0">ess: &lt;miner-1-addr&gt; </tspan></text><line class="cls-16" x1="238" y1="694.5" x2="299.5" y2="694.5"/><polygon points="297.77 700.41 308 694.5 297.77 688.59 297.77 700.41"/><line class="cls-16" x1="450.5" y1="870" x2="450.5" y2="886.5"/><polygon points="444.59 884.77 450.5 895 456.41 884.77 444.59 884.77"/><text class="cls-3" transform="translate(332 700.83)">AlgoMine<tspan class="cls-19" x="106.92" y="0">r</tspan><tspan x="115.27" y="0">.sol</tspan><tspan class="cls-17"><tspan x="0" y="24">Miner type: 0</tspan><tspan x="0" y="48">Miner c</tspan><tspan class="cls-10" x="67.64" y="48">at</tspan><tspan x="86.02" y="48">egory: 1 </tspan><tspan x="0" y="72">Miner addr: &lt;miner-1-addr&gt;</tspan><tspan x="0" y="96">Re</tspan><tspan class="cls-10" x="24.84" y="96">f</tspan><tspan x="32.18" y="96">er</tspan><tspan class="cls-20" x="50.72" y="96">r</tspan><tspan x="57.86" y="96">al addr: &lt;</tspan><tspan class="cls-10" x="141.4" y="96">r</tspan><tspan x="148.64" y="96">effr-1-addr&gt;</tspan><tspan class="cls-14" x="0" y="120">T</tspan><tspan x="11.04" y="120">o</tspan><tspan class="cls-12" x="22.58" y="120">k</tspan><tspan x="33.12" y="120">en addr: &lt;algo-addr&gt; </tspan></tspan></text><text class="cls-21" transform="translate(101 763.86)">Miner <tspan class="cls-22" x="37.9" y="0">T</tspan><tspan x="44.24" y="0">ype: [0-1]</tspan><tspan x="0" y="24" xml:space="preserve">  (Miner or Re</tspan><tspan class="cls-10" x="79.88" y="24">f</tspan><tspan x="84.52" y="24">er</tspan><tspan class="cls-20" x="96.74" y="24">r</tspan><tspan x="101.44" y="24">al)</tspan><tspan x="0" y="72">Miner C</tspan><tspan class="cls-10" x="44.26" y="72">at</tspan><tspan x="55.92" y="72">egory: [0-5]</tspan><tspan x="0" y="96" xml:space="preserve">  P</tspan><tspan class="cls-10" x="14.12" y="96">r</tspan><tspan x="18.92" y="96">opo</tspan><tspan class="cls-23" x="41.72" y="96">r</tspan><tspan x="46.72" y="96">tional di</tspan><tspan class="cls-10" x="94.94" y="96">s</tspan><tspan x="101.2" y="96">tribution</tspan><tspan x="0" y="120" xml:space="preserve">  of </tspan><tspan class="cls-10" x="21.94" y="120">f</tspan><tspan x="26.58" y="120">ees </tspan></text><rect class="cls-1" x="878" y="711" width="282" height="116"/><path class="cls-24" d="M1158,713V825H880V713h278m4-4H876V829h286V709Z"/><text class="cls-9" transform="translate(962.8 646.86)">msg.sender:</text><text class="cls-9" transform="translate(918.06 671.86)">&lt;co<tspan class="cls-10" x="31.56" y="0">r</tspan><tspan x="38.8" y="0">e-</tspan><tspan class="cls-11" x="57.24" y="0">t</tspan><tspan x="64.32" y="0">eam-</tspan><tspan class="cls-12" x="111.82" y="0">e</tspan><tspan x="122.82" y="0">xt-addr&gt;</tspan></text><text class="cls-9" transform="translate(882.45 870.86)">cont<tspan class="cls-12" x="39.9" y="0">r</tspan><tspan x="47.04" y="0">act add</tspan><tspan class="cls-11" x="114.56" y="0">r</tspan><tspan x="121.8" y="0">ess: &lt;</tspan><tspan class="cls-10" x="172.94" y="0">f</tspan><tspan x="180.28" y="0">ees-addr&gt; </tspan></text><line class="cls-16" x1="1013.5" y1="826" x2="1013.5" y2="842.5"/><polygon points="1007.59 840.77 1013.5 851 1019.41 840.77 1007.59 840.77"/><line class="cls-16" x1="1013.5" y1="679" x2="1013.5" y2="695.5"/><polygon points="1007.59 693.77 1013.5 704 1019.41 693.77 1007.59 693.77"/><text class="cls-3" transform="translate(891 744.83)">Algo<tspan class="cls-25" x="51.09" y="0">F</tspan><tspan x="64.58" y="0">ees.sol</tspan><tspan class="cls-17"><tspan class="cls-14" x="0" y="24">T</tspan><tspan x="11.04" y="24">o</tspan><tspan class="cls-12" x="22.58" y="24">k</tspan><tspan x="33.12" y="24">en Add</tspan><tspan class="cls-10" x="98.32" y="24">r</tspan><tspan x="105.56" y="24">ess: &lt;algo-addr&gt; </tspan></tspan></text><rect class="cls-1" x="881" y="354" width="282" height="116"/><path class="cls-6" d="M1161,356V468H883V356h278m4-4H879V472h286V352Z"/><text class="cls-9" transform="translate(644.8 372.86)">msg.sender:</text><text class="cls-9" transform="translate(606.23 397.86)">&lt;pool-2-<tspan class="cls-12" x="77.48" y="0">e</tspan><tspan x="88.48" y="0">xt-addr&gt;</tspan></text><line class="cls-16" x1="782" y1="381.5" x2="843.5" y2="381.5"/><polygon points="841.77 387.41 852 381.5 841.77 375.59 841.77 387.41"/><text class="cls-3" transform="translate(898 387.83)">AlgoPool.sol<tspan class="cls-17"><tspan x="0" y="24">Pool type: 1 (</tspan><tspan class="cls-10" x="115.64" y="24">r</tspan><tspan x="122.88" y="24">e</tspan><tspan class="cls-11" x="134.08" y="24">f</tspan><tspan x="141.42" y="24">er</tspan><tspan class="cls-12" x="159.96" y="24">r</tspan><tspan x="167.1" y="24">al-pool)</tspan><tspan class="cls-14" x="0" y="48">T</tspan><tspan x="11.04" y="48">o</tspan><tspan class="cls-12" x="22.58" y="48">k</tspan><tspan x="33.12" y="48">en addrs: &lt;algo-addr&gt; </tspan></tspan></text><rect class="cls-26" x="17" y="65" width="1246" height="184.5"/><rect class="cls-26" x="17" y="266" width="1246" height="289.5"/><rect class="cls-26" x="17" y="571.46" width="729.5" height="377.54"/><rect class="cls-26" x="766.58" y="569.97" width="496.92" height="377.54"/></svg>