<svg id="Layer_1" data-name="Layer 1" xmlns="http://www.w3.org/2000/svg" viewBox="0 0 1280 917"><defs><style>.cls-1{fill:#fff;}.cls-2{fill:#0071bc;}.cls-3{fill:#f15a24;}.cls-4{fill:#39b54a;}.cls-5{fill:#c1272d;}.cls-6{font-size:24px;}.cls-14,.cls-18,.cls-6{font-family:Saira-Bold, Saira;font-weight:700;}.cls-7{letter-spacing:-0.03em;}.cls-8{letter-spacing:-0.01em;}.cls-14,.cls-16,.cls-9{font-size:20px;}.cls-15,.cls-16,.cls-9{font-family:Saira-Regular, Saira;}.cls-15,.cls-9{font-weight:400;}.cls-10{letter-spacing:0em;}.cls-11{letter-spacing:-0.01em;}.cls-12{letter-spacing:-0.06em;}.cls-13{letter-spacing:-0.01em;}.cls-17{letter-spacing:-0.03em;}.cls-18{font-size:30px;letter-spacing:0.1em;}.cls-19{letter-spacing:0.09em;}.cls-20{letter-spacing:-0.06em;}.cls-21{letter-spacing:0em;}.cls-22{fill:none;stroke:#000;stroke-miterlimit:10;stroke-width:0.59px;}.cls-23{letter-spacing:-0.01em;}.cls-24{letter-spacing:-0.06em;}</style></defs><title>SA-SC-inheritence-vect</title><rect class="cls-1" x="655" y="86" width="282" height="794"/><path class="cls-2" d="M935,88V878H657V88H935m4-4H653V882H939V84Z"/><rect class="cls-1" x="970" y="86" width="282" height="794"/><path class="cls-3" d="M1250,88V878H972V88h278m4-4H968V882h286V84Z"/><rect class="cls-1" x="340" y="86" width="282" height="794"/><path class="cls-4" d="M620,88V878H342V88H620m4-4H338V882H624V84Z"/><rect class="cls-1" x="25" y="87" width="282" height="111"/><path class="cls-5" d="M305,89V196H27V89H305m4-4H23V200H309V85Z"/><text class="cls-6" transform="translate(41 122.83)">Algo<tspan class="cls-7" x="51.09" y="0">T</tspan><tspan x="64.44" y="0">o</tspan><tspan class="cls-8" x="78.12" y="0">k</tspan><tspan x="91.58" y="0">enV1.sol</tspan><tspan class="cls-9"><tspan x="0" y="24">• OZ/ERC20D</tspan><tspan class="cls-10" x="122.4" y="24">e</tspan><tspan class="cls-11" x="133.5" y="24">t</tspan><tspan x="140.48" y="24">ailed.sol</tspan><tspan x="0" y="48">• OZ/ERC20Pausable.sol</tspan></tspan></text><text class="cls-6" transform="translate(671 121.83)">AlgoMine<tspan class="cls-12" x="106.92" y="0">r</tspan><tspan x="115.27" y="0">.sol</tspan><tspan class="cls-9"><tspan x="0" y="24">• OZ/IERC20.sol</tspan><tspan x="0" y="48">• OZ/Sa</tspan><tspan class="cls-10" x="69.74" y="48">f</tspan><tspan x="77.08" y="48">eERC20.sol</tspan></tspan></text><text class="cls-6" transform="translate(986 121.83)">Algo<tspan class="cls-13" x="51.09" y="0">F</tspan><tspan x="64.58" y="0">ees.sol</tspan><tspan class="cls-9"><tspan x="0" y="24">• OZ/IERC20.sol</tspan><tspan x="0" y="48">• OZ/Sa</tspan><tspan class="cls-10" x="69.74" y="48">f</tspan><tspan x="77.08" y="48">eERC20.sol</tspan></tspan></text><rect class="cls-1" x="988.25" y="654.25" width="245.5" height="88.5"/><path d="M1233.5,654.5v88h-245v-88h245m.5-.5H988v89h246V654Z"/><text class="cls-14" transform="translate(1006 688.86)">AlgoSy<tspan class="cls-10" x="66.76" y="0">st</tspan><tspan x="84.64" y="0">emRole.sol</tspan><tspan class="cls-15"><tspan x="0" y="24">• OZ/Roles.sol</tspan></tspan></text><text class="cls-16" transform="translate(41 836.86)">OZ = OpenZeppelin<tspan class="cls-10" x="0" y="24">r</tspan><tspan x="7.24" y="24">eusable smart cont</tspan><tspan class="cls-11" x="182.76" y="24">r</tspan><tspan x="189.9" y="24">acts</tspan></text><rect class="cls-1" x="358.22" y="323.22" width="245.57" height="64.57"/><path d="M603.57,323.43v64.14H358.43V323.43H603.57M604,323H358v65H604V323Z"/><text class="cls-14" transform="translate(376 357.86)">AlgoCommon.sol</text><rect class="cls-1" x="673.22" y="323.22" width="245.57" height="64.57"/><path d="M918.57,323.43v64.14H673.43V323.43H918.57M919,323H673v65H919V323Z"/><text class="cls-14" transform="translate(691 357.86)">AlgoCommon.sol</text><rect class="cls-1" x="988.25" y="541.25" width="245.5" height="88.5"/><path d="M1233.5,541.5v88h-245v-88h245m.5-.5H988v89h246V541Z"/><text class="cls-14" transform="translate(1006 575.86)">AlgoCo<tspan class="cls-10" x="65.46" y="0">r</tspan><tspan x="73.52" y="0">e</tspan><tspan class="cls-17" x="84.62" y="0">T</tspan><tspan x="95.74" y="0">eamRole.sol</tspan><tspan class="cls-15"><tspan x="0" y="24">• OZ/Roles.sol</tspan></tspan></text><rect class="cls-1" x="673.25" y="654.25" width="245.5" height="88.5"/><path d="M918.5,654.5v88h-245v-88h245m.5-.5H673v89H919V654Z"/><text class="cls-14" transform="translate(691 688.86)">AlgoSy<tspan class="cls-10" x="66.76" y="0">st</tspan><tspan x="84.64" y="0">emRole.sol</tspan><tspan class="cls-15"><tspan x="0" y="24">• OZ/Roles.sol</tspan></tspan></text><rect class="cls-1" x="673.25" y="767.25" width="245.5" height="88.5"/><path d="M918.5,767.5v88h-245v-88h245m.5-.5H673v89H919V767Z"/><text class="cls-14" transform="translate(691 801.86)">AlgoSuperviserRole.sol<tspan class="cls-15"><tspan x="0" y="24">• OZ/Roles.sol</tspan></tspan></text><rect class="cls-1" x="673.25" y="541.25" width="245.5" height="88.5"/><path d="M918.5,541.5v88h-245v-88h245m.5-.5H673v89H919V541Z"/><text class="cls-14" transform="translate(691 575.86)">AlgoCo<tspan class="cls-10" x="65.46" y="0">r</tspan><tspan x="73.52" y="0">e</tspan><tspan class="cls-17" x="84.62" y="0">T</tspan><tspan x="95.74" y="0">eamRole.sol</tspan><tspan class="cls-15"><tspan x="0" y="24">• OZ/Roles.sol</tspan></tspan></text><rect class="cls-1" x="358.25" y="541.25" width="245.5" height="88.5"/><path d="M603.5,541.5v88h-245v-88h245m.5-.5H358v89H604V541Z"/><text class="cls-14" transform="translate(376 575.86)">AlgoCo<tspan class="cls-10" x="65.46" y="0">r</tspan><tspan x="73.52" y="0">e</tspan><tspan class="cls-17" x="84.62" y="0">T</tspan><tspan x="95.74" y="0">eamRole.sol</tspan><tspan class="cls-15"><tspan x="0" y="24">• OZ/Roles.sol</tspan></tspan></text><rect class="cls-1" x="118.25" y="518.25" width="198.5" height="55.5"/><path d="M316.5,518.5v55h-198v-55h198m.5-.5H118v56H317V518Z"/><text class="cls-14" transform="translate(136 552.86)"><tspan class="cls-17">T</tspan><tspan x="11.12" y="0">erminable.sol</tspan></text><text class="cls-18" transform="translate(467.1 50.29)">Cont<tspan class="cls-19" x="76.17" y="0">r</tspan><tspan x="91.11" y="0">act Inheri</tspan><tspan class="cls-19" x="253.86" y="0">t</tspan><tspan x="268.74" y="0">ance</tspan></text><rect class="cls-1" x="358.22" y="233.22" width="245.57" height="64.57"/><path d="M603.57,233.43v64.14H358.43V233.43H603.57M604,233H358v65H604V233Z"/><text class="cls-14" transform="translate(376 267.86)">IAlgoMine<tspan class="cls-20" x="95.42" y="0">r</tspan><tspan class="cls-21" x="102.38" y="0">.sol</tspan></text><rect class="cls-1" x="673.22" y="233.22" width="245.57" height="64.57"/><path d="M918.57,233.43v64.14H673.43V233.43H918.57M919,233H673v65H919V233Z"/><text class="cls-14" transform="translate(691 267.86)">IAlgoMine<tspan class="cls-20" x="95.42" y="0">r</tspan><tspan class="cls-21" x="102.38" y="0">.sol</tspan></text><rect class="cls-1" x="988.22" y="233.22" width="245.57" height="64.57"/><path d="M1233.57,233.43v64.14H988.43V233.43h245.14m.43-.43H988v65h246V233Z"/><text class="cls-14" transform="translate(1006 267.86)">IAlgoMine<tspan class="cls-20" x="95.42" y="0">r</tspan><tspan class="cls-21" x="102.38" y="0">.sol</tspan></text><text class="cls-6" transform="translate(356 121.83)">AlgoPool.sol<tspan class="cls-9"><tspan x="0" y="24">• OZ/IERC20.sol</tspan><tspan x="0" y="48">• OZ/Sa</tspan><tspan class="cls-10" x="69.74" y="48">f</tspan><tspan x="77.08" y="48">eERC20.sol</tspan></tspan></text><polyline class="cls-22" points="989 461.5 219.5 461.5 219.5 510.5"/><polygon points="213.59 508.77 219.5 519 225.41 508.77 213.59 508.77"/><rect class="cls-1" x="358.27" y="413.27" width="245.46" height="101.46"/><path d="M603.46,413.54V514.46H358.54V413.54H603.46M604,413H358V515H604V413Z"/><text class="cls-14" transform="translate(376 447.86)">ERC20<tspan class="cls-17" x="62.76" y="0">T</tspan><tspan x="73.88" y="0">o</tspan><tspan class="cls-23" x="85.28" y="0">k</tspan><tspan x="96.5" y="0">enHolde</tspan><tspan class="cls-24" x="173.42" y="0">r</tspan><tspan x="180.38" y="0">.sol</tspan><tspan class="cls-15"><tspan x="0" y="24">• OZ/IERC20.sol</tspan><tspan x="0" y="48">• OZ/Sa</tspan><tspan class="cls-10" x="69.74" y="48">f</tspan><tspan x="77.08" y="48">eERC20.sol</tspan></tspan></text><rect class="cls-1" x="673.27" y="413.27" width="245.46" height="101.46"/><path d="M918.46,413.54V514.46H673.54V413.54H918.46M919,413H673V515H919V413Z"/><text class="cls-14" transform="translate(691 447.86)">ERC20<tspan class="cls-17" x="62.76" y="0">T</tspan><tspan x="73.88" y="0">o</tspan><tspan class="cls-23" x="85.28" y="0">k</tspan><tspan x="96.5" y="0">enHolde</tspan><tspan class="cls-24" x="173.42" y="0">r</tspan><tspan x="180.38" y="0">.sol</tspan><tspan class="cls-15"><tspan x="0" y="24">• OZ/IERC20.sol</tspan><tspan x="0" y="48">• OZ/Sa</tspan><tspan class="cls-10" x="69.74" y="48">f</tspan><tspan x="77.08" y="48">eERC20.sol</tspan></tspan></text><rect class="cls-1" x="988.27" y="413.27" width="245.46" height="101.46"/><path d="M1233.46,413.54V514.46H988.54V413.54h244.92m.54-.54H988V515h246V413Z"/><text class="cls-14" transform="translate(1006 447.86)">ERC20<tspan class="cls-17" x="62.76" y="0">T</tspan><tspan x="73.88" y="0">o</tspan><tspan class="cls-23" x="85.28" y="0">k</tspan><tspan x="96.5" y="0">enHolde</tspan><tspan class="cls-24" x="173.42" y="0">r</tspan><tspan x="180.38" y="0">.sol</tspan><tspan class="cls-15"><tspan x="0" y="24">• OZ/IERC20.sol</tspan><tspan x="0" y="48">• OZ/Sa</tspan><tspan class="cls-10" x="69.74" y="48">f</tspan><tspan x="77.08" y="48">eERC20.sol</tspan></tspan></text></svg>